<svg height="798" width="720" xmlns="http://www.w3.org/2000/svg">
<rect height="798" fill="#555" width="720"></rect>
<text fill="#7f7" font-family="Courier New" font-size="12" xml:space="preserve">
<tspan x="10" y="26">7 megabytes installed</tspan>
<tspan x="10" y="42"></tspan>
<tspan x="10" y="58">node_modules</tspan>
<tspan x="10" y="74">└─┬ webrtc@1.14.1 </tspan>
<tspan x="10" y="90">  ├─┬ filetransfer@2.0.5 </tspan>
<tspan x="10" y="106">  │ ├── async@0.9.2 </tspan>
<tspan x="10" y="122">  │ └─┬ iana-hashes@1.0.3 </tspan>
<tspan x="10" y="138">  │   ├─┬ create-hash@1.1.2 </tspan>
<tspan x="10" y="154">  │   │ ├── cipher-base@1.0.3 </tspan>
<tspan x="10" y="170">  │   │ ├── inherits@2.0.3 </tspan>
<tspan x="10" y="186">  │   │ ├── ripemd160@1.0.1 </tspan>
<tspan x="10" y="202">  │   │ └── sha.js@2.4.8 </tspan>
<tspan x="10" y="218">  │   └── create-hmac@1.1.4 </tspan>
<tspan x="10" y="234">  ├─┬ localmedia@1.2.1 </tspan>
<tspan x="10" y="250">  │ ├─┬ getscreenmedia@1.5.6 </tspan>
<tspan x="10" y="266">  │ │ └─┬ getusermedia@2.0.1 </tspan>
<tspan x="10" y="282">  │ │   └── webrtc-adapter@2.1.0 </tspan>
<tspan x="10" y="298">  │ ├─┬ getusermedia@1.3.7 </tspan>
<tspan x="10" y="314">  │ │ └─┬ webrtc-adapter@1.4.0 </tspan>
<tspan x="10" y="330">  │ │   └── sdp@1.5.0 </tspan>
<tspan x="10" y="346">  │ ├── hark@1.1.5 </tspan>
<tspan x="10" y="362">  │ ├── mediastream-gain@1.0.1 </tspan>
<tspan x="10" y="378">  │ └── webrtcsupport@2.2.0 </tspan>
<tspan x="10" y="394">  ├── mockconsole@0.0.1 </tspan>
<tspan x="10" y="410">  ├─┬ rtcpeerconnection@3.1.6 </tspan>
<tspan x="10" y="426">  │ ├─┬ lodash.foreach@3.0.3 </tspan>
<tspan x="10" y="442">  │ │ ├── lodash._arrayeach@3.0.0 </tspan>
<tspan x="10" y="458">  │ │ ├─┬ lodash._baseeach@3.0.4 </tspan>
<tspan x="10" y="474">  │ │ │ └─┬ lodash.keys@3.1.2 </tspan>
<tspan x="10" y="490">  │ │ │   ├── lodash._getnative@3.9.1 </tspan>
<tspan x="10" y="506">  │ │ │   └── lodash.isarguments@3.1.0 </tspan>
<tspan x="10" y="522">  │ │ ├── lodash._bindcallback@3.0.1 </tspan>
<tspan x="10" y="538">  │ │ └── lodash.isarray@3.0.4 </tspan>
<tspan x="10" y="554">  │ ├─┬ lodash.pluck@3.1.2 </tspan>
<tspan x="10" y="570">  │ │ ├── lodash._baseget@3.7.2 </tspan>
<tspan x="10" y="586">  │ │ ├── lodash._topath@3.8.1 </tspan>
<tspan x="10" y="602">  │ │ └─┬ lodash.map@3.1.4 </tspan>
<tspan x="10" y="618">  │ │   ├── lodash._arraymap@3.0.0 </tspan>
<tspan x="10" y="634">  │ │   └─┬ lodash._basecallback@3.3.1 </tspan>
<tspan x="10" y="650">  │ │     ├─┬ lodash._baseisequal@3.0.7 </tspan>
<tspan x="10" y="666">  │ │     │ └── lodash.istypedarray@3.0.6 </tspan>
<tspan x="10" y="682">  │ │     └── lodash.pairs@3.0.1 </tspan>
<tspan x="10" y="698">  │ ├── sdp-jingle-json@2.2.1 </tspan>
<tspan x="10" y="714">  │ ├─┬ traceablepeerconnection@1.2.0 </tspan>
<tspan x="10" y="730">  │ │ └── webrtc-adapter@1.4.0 </tspan>
<tspan x="10" y="746">  │ └── webrtc-adapter-test@0.2.10 </tspan>
<tspan x="10" y="762">  ├── webrtcsupport@1.3.2 </tspan>
<tspan x="10" y="778">  └── wildemitter@1.2.0</tspan>
</text>
</svg>
